<mxfile host="app.diagrams.net" modified="2022-08-21T14:03:10.667Z" agent="5.0 (Windows NT 10.0; Win64; x64) AppleWebKit/537.36 (KHTML, like Gecko) Chrome/104.0.0.0 Safari/537.36" etag="E0IrPFscDojfBHOj9ZsF" version="20.2.4" type="github">
  <diagram id="rk3kt6hLfGUAzw9A4Ssn" name="Page-1">
    <mxGraphModel dx="1040" dy="551" grid="1" gridSize="10" guides="1" tooltips="1" connect="1" arrows="1" fold="1" page="1" pageScale="1" pageWidth="1750" pageHeight="1250" math="0" shadow="0">
      <root>
        <mxCell id="0" />
        <mxCell id="1" parent="0" />
        <mxCell id="ZoIrjNhyJp5aEMFjkI-h-16" style="edgeStyle=orthogonalEdgeStyle;rounded=0;orthogonalLoop=1;jettySize=auto;html=1;entryX=0.995;entryY=0.696;entryDx=0;entryDy=0;entryPerimeter=0;" parent="1" edge="1">
          <mxGeometry relative="1" as="geometry">
            <mxPoint x="834.375" y="354.79999999999995" as="targetPoint" />
            <Array as="points">
              <mxPoint x="743" y="300" />
              <mxPoint x="855" y="300" />
              <mxPoint x="855" y="355" />
            </Array>
          </mxGeometry>
        </mxCell>
        <mxCell id="ZoIrjNhyJp5aEMFjkI-h-17" value="&lt;span style=&quot;font-weight: 700; text-align: left; text-decoration-line: underline;&quot;&gt;DataSurrogateKey&lt;/span&gt;" style="rounded=0;whiteSpace=wrap;html=1;" parent="1" vertex="1">
          <mxGeometry x="80" y="80" width="120" height="60" as="geometry" />
        </mxCell>
        <mxCell id="ZoIrjNhyJp5aEMFjkI-h-18" value="&lt;b&gt;STATIONDATA&lt;/b&gt;" style="text;html=1;align=center;verticalAlign=middle;resizable=0;points=[];autosize=1;strokeColor=none;fillColor=none;" parent="1" vertex="1">
          <mxGeometry x="66" y="49" width="110" height="30" as="geometry" />
        </mxCell>
        <mxCell id="ZoIrjNhyJp5aEMFjkI-h-19" value="&lt;span style=&quot;text-align: left;&quot;&gt;Location&lt;/span&gt;" style="rounded=0;whiteSpace=wrap;html=1;" parent="1" vertex="1">
          <mxGeometry x="390" y="80" width="120" height="60" as="geometry" />
        </mxCell>
        <mxCell id="ZoIrjNhyJp5aEMFjkI-h-20" value="&lt;span style=&quot;text-align: left;&quot;&gt;Date&lt;/span&gt;" style="rounded=0;whiteSpace=wrap;html=1;" parent="1" vertex="1">
          <mxGeometry x="510" y="80" width="120" height="60" as="geometry" />
        </mxCell>
        <mxCell id="ZoIrjNhyJp5aEMFjkI-h-21" value="&lt;span style=&quot;text-align: left;&quot;&gt;PM25&lt;/span&gt;" style="rounded=0;whiteSpace=wrap;html=1;" parent="1" vertex="1">
          <mxGeometry x="630" y="80" width="120" height="60" as="geometry" />
        </mxCell>
        <mxCell id="ZoIrjNhyJp5aEMFjkI-h-22" value="&lt;span style=&quot;text-align: left;&quot;&gt;AverageTemperature&lt;/span&gt;" style="rounded=0;whiteSpace=wrap;html=1;" parent="1" vertex="1">
          <mxGeometry x="750" y="80" width="130" height="60" as="geometry" />
        </mxCell>
        <mxCell id="ZoIrjNhyJp5aEMFjkI-h-23" value="&lt;span style=&quot;text-align: left;&quot;&gt;RainPrecipitation&lt;/span&gt;" style="rounded=0;whiteSpace=wrap;html=1;" parent="1" vertex="1">
          <mxGeometry x="880" y="80" width="120" height="60" as="geometry" />
        </mxCell>
        <mxCell id="ZoIrjNhyJp5aEMFjkI-h-24" value="&lt;span style=&quot;text-align: left;&quot;&gt;WindSpeed&lt;/span&gt;" style="rounded=0;whiteSpace=wrap;html=1;" parent="1" vertex="1">
          <mxGeometry x="999" y="80" width="120" height="60" as="geometry" />
        </mxCell>
        <mxCell id="ZoIrjNhyJp5aEMFjkI-h-25" value="&lt;span style=&quot;text-align: left;&quot;&gt;Visibility&lt;/span&gt;" style="rounded=0;whiteSpace=wrap;html=1;" parent="1" vertex="1">
          <mxGeometry x="1117" y="80" width="120" height="60" as="geometry" />
        </mxCell>
        <mxCell id="ZoIrjNhyJp5aEMFjkI-h-26" value="&lt;span style=&quot;text-align: left;&quot;&gt;CloudCover&lt;/span&gt;" style="rounded=0;whiteSpace=wrap;html=1;" parent="1" vertex="1">
          <mxGeometry x="1237" y="80" width="120" height="60" as="geometry" />
        </mxCell>
        <mxCell id="ZoIrjNhyJp5aEMFjkI-h-27" value="&lt;span style=&quot;text-align: left;&quot;&gt;RelativeHumidity&lt;/span&gt;" style="rounded=0;whiteSpace=wrap;html=1;" parent="1" vertex="1">
          <mxGeometry x="1357" y="80" width="120" height="60" as="geometry" />
        </mxCell>
        <mxCell id="ZoIrjNhyJp5aEMFjkI-h-28" value="&lt;span style=&quot;font-weight: 700; text-align: left; text-decoration-line: underline;&quot;&gt;StationidentifierSurrogateKey&lt;/span&gt;" style="rounded=0;whiteSpace=wrap;html=1;" parent="1" vertex="1">
          <mxGeometry x="80" y="200" width="190" height="60" as="geometry" />
        </mxCell>
        <mxCell id="ZoIrjNhyJp5aEMFjkI-h-29" value="&lt;b&gt;STATION&lt;/b&gt;" style="text;html=1;align=center;verticalAlign=middle;resizable=0;points=[];autosize=1;strokeColor=none;fillColor=none;" parent="1" vertex="1">
          <mxGeometry x="70" y="170" width="70" height="30" as="geometry" />
        </mxCell>
        <mxCell id="ZoIrjNhyJp5aEMFjkI-h-30" value="&lt;span style=&quot;text-align: left;&quot;&gt;Division&lt;/span&gt;" style="rounded=0;whiteSpace=wrap;html=1;" parent="1" vertex="1">
          <mxGeometry x="269" y="200" width="120" height="60" as="geometry" />
        </mxCell>
        <mxCell id="ZoIrjNhyJp5aEMFjkI-h-31" value="&lt;span style=&quot;text-align: left;&quot;&gt;StationType&lt;/span&gt;" style="rounded=0;whiteSpace=wrap;html=1;" parent="1" vertex="1">
          <mxGeometry x="389" y="200" width="120" height="60" as="geometry" />
        </mxCell>
        <mxCell id="AafKOmIe7SDXZY3rJRMZ-4" style="edgeStyle=orthogonalEdgeStyle;rounded=0;orthogonalLoop=1;jettySize=auto;html=1;exitX=0.5;exitY=1;exitDx=0;exitDy=0;entryX=0;entryY=0.167;entryDx=0;entryDy=0;fontSize=11;entryPerimeter=0;" edge="1" parent="1" source="ZoIrjNhyJp5aEMFjkI-h-39" target="ZoIrjNhyJp5aEMFjkI-h-28">
          <mxGeometry relative="1" as="geometry" />
        </mxCell>
        <mxCell id="ZoIrjNhyJp5aEMFjkI-h-39" value="&lt;span style=&quot;font-weight: 700; text-align: left;&quot;&gt;&lt;u&gt;StationidentifierSurrogateKey&lt;/u&gt;&lt;/span&gt;" style="rounded=0;whiteSpace=wrap;html=1;" parent="1" vertex="1">
          <mxGeometry x="200" y="80" width="190" height="60" as="geometry" />
        </mxCell>
        <mxCell id="AafKOmIe7SDXZY3rJRMZ-5" style="edgeStyle=orthogonalEdgeStyle;rounded=0;orthogonalLoop=1;jettySize=auto;html=1;exitX=0;exitY=0.25;exitDx=0;exitDy=0;entryX=0.005;entryY=0.86;entryDx=0;entryDy=0;entryPerimeter=0;fontSize=11;" edge="1" parent="1" source="ZoIrjNhyJp5aEMFjkI-h-47" target="ZoIrjNhyJp5aEMFjkI-h-28">
          <mxGeometry relative="1" as="geometry" />
        </mxCell>
        <mxCell id="ZoIrjNhyJp5aEMFjkI-h-47" value="&lt;span style=&quot;font-weight: 700; text-align: left; text-decoration-line: underline;&quot;&gt;PStationidentifierSurrogateKey&lt;/span&gt;" style="rounded=0;whiteSpace=wrap;html=1;" parent="1" vertex="1">
          <mxGeometry x="80" y="319" width="200" height="60" as="geometry" />
        </mxCell>
        <mxCell id="ZoIrjNhyJp5aEMFjkI-h-48" value="&lt;span style=&quot;font-weight: 700;&quot;&gt;PRIVATESTATION&lt;/span&gt;" style="text;html=1;align=center;verticalAlign=middle;resizable=0;points=[];autosize=1;strokeColor=none;fillColor=none;" parent="1" vertex="1">
          <mxGeometry x="70" y="289" width="120" height="30" as="geometry" />
        </mxCell>
        <mxCell id="ZoIrjNhyJp5aEMFjkI-h-49" value="&lt;span style=&quot;text-align: left;&quot;&gt;StationNumber&lt;/span&gt;" style="rounded=0;whiteSpace=wrap;html=1;" parent="1" vertex="1">
          <mxGeometry x="400" y="319" width="120" height="60" as="geometry" />
        </mxCell>
        <mxCell id="ZoIrjNhyJp5aEMFjkI-h-71" value="&lt;span style=&quot;font-weight: 700; text-align: left; text-decoration-line: underline;&quot;&gt;OrganisationName&lt;/span&gt;" style="rounded=0;whiteSpace=wrap;html=1;" parent="1" vertex="1">
          <mxGeometry x="80" y="440" width="130" height="60" as="geometry" />
        </mxCell>
        <mxCell id="AafKOmIe7SDXZY3rJRMZ-6" style="edgeStyle=orthogonalEdgeStyle;rounded=0;orthogonalLoop=1;jettySize=auto;html=1;exitX=0.5;exitY=1;exitDx=0;exitDy=0;entryX=0;entryY=0.5;entryDx=0;entryDy=0;fontSize=11;" edge="1" parent="1">
          <mxGeometry relative="1" as="geometry">
            <mxPoint x="340" y="379" as="sourcePoint" />
            <mxPoint x="80" y="470.0000000000001" as="targetPoint" />
            <Array as="points">
              <mxPoint x="340" y="400" />
              <mxPoint x="60" y="400" />
              <mxPoint x="60" y="470" />
            </Array>
          </mxGeometry>
        </mxCell>
        <mxCell id="ZoIrjNhyJp5aEMFjkI-h-75" value="&lt;span style=&quot;font-weight: 700; text-align: left;&quot;&gt;&lt;u&gt;OrganisationName&lt;/u&gt;&lt;/span&gt;" style="rounded=0;whiteSpace=wrap;html=1;" parent="1" vertex="1">
          <mxGeometry x="280" y="319" width="120" height="60" as="geometry" />
        </mxCell>
        <mxCell id="ZoIrjNhyJp5aEMFjkI-h-82" value="&lt;span style=&quot;font-weight: 700; text-align: left; text-decoration-line: underline;&quot;&gt;RoadmapDataSurrogateKey&lt;/span&gt;" style="rounded=0;whiteSpace=wrap;html=1;" parent="1" vertex="1">
          <mxGeometry x="80" y="560" width="180" height="60" as="geometry" />
        </mxCell>
        <mxCell id="ZoIrjNhyJp5aEMFjkI-h-84" value="&lt;span style=&quot;text-align: left;&quot;&gt;Latitude&lt;/span&gt;" style="rounded=0;whiteSpace=wrap;html=1;" parent="1" vertex="1">
          <mxGeometry x="499" y="560" width="120" height="60" as="geometry" />
        </mxCell>
        <mxCell id="ZoIrjNhyJp5aEMFjkI-h-85" value="&lt;span style=&quot;text-align: left;&quot;&gt;Longitude&lt;/span&gt;" style="rounded=0;whiteSpace=wrap;html=1;" parent="1" vertex="1">
          <mxGeometry x="619" y="560" width="120" height="60" as="geometry" />
        </mxCell>
        <mxCell id="ZoIrjNhyJp5aEMFjkI-h-95" value="&lt;span style=&quot;text-align: left;&quot;&gt;Date&lt;/span&gt;" style="rounded=0;whiteSpace=wrap;html=1;" parent="1" vertex="1">
          <mxGeometry x="389" y="560" width="110" height="60" as="geometry" />
        </mxCell>
        <mxCell id="AafKOmIe7SDXZY3rJRMZ-11" style="edgeStyle=orthogonalEdgeStyle;rounded=0;orthogonalLoop=1;jettySize=auto;html=1;exitX=0;exitY=0.5;exitDx=0;exitDy=0;entryX=0;entryY=0.5;entryDx=0;entryDy=0;fontSize=11;" edge="1" parent="1" source="ZoIrjNhyJp5aEMFjkI-h-97" target="ZoIrjNhyJp5aEMFjkI-h-28">
          <mxGeometry relative="1" as="geometry">
            <Array as="points">
              <mxPoint x="40" y="709" />
              <mxPoint x="40" y="230" />
            </Array>
          </mxGeometry>
        </mxCell>
        <mxCell id="ZoIrjNhyJp5aEMFjkI-h-97" value="&lt;span style=&quot;font-weight: 700; text-align: left; text-decoration-line: underline;&quot;&gt;GStationidentifierSurrogateKey&lt;/span&gt;" style="rounded=0;whiteSpace=wrap;html=1;" parent="1" vertex="1">
          <mxGeometry x="80" y="679" width="200" height="60" as="geometry" />
        </mxCell>
        <mxCell id="ZoIrjNhyJp5aEMFjkI-h-98" value="&lt;span style=&quot;font-weight: 700;&quot;&gt;ROADMAPDATA&lt;/span&gt;" style="text;html=1;align=center;verticalAlign=middle;resizable=0;points=[];autosize=1;strokeColor=none;fillColor=none;" parent="1" vertex="1">
          <mxGeometry x="66" y="531" width="120" height="30" as="geometry" />
        </mxCell>
        <mxCell id="ZoIrjNhyJp5aEMFjkI-h-100" value="&lt;span style=&quot;text-align: left;&quot;&gt;StationName&lt;/span&gt;" style="rounded=0;whiteSpace=wrap;html=1;" parent="1" vertex="1">
          <mxGeometry x="400" y="679" width="120" height="60" as="geometry" />
        </mxCell>
        <mxCell id="ZoIrjNhyJp5aEMFjkI-h-109" value="&lt;span style=&quot;font-weight: 700; text-align: center;&quot;&gt;RESEARCHORGANISATION&lt;/span&gt;" style="text;whiteSpace=wrap;html=1;" parent="1" vertex="1">
          <mxGeometry x="81" y="411" width="90" height="29" as="geometry" />
        </mxCell>
        <mxCell id="ZoIrjNhyJp5aEMFjkI-h-110" value="&lt;span style=&quot;font-weight: 700;&quot;&gt;GOVERNMENTSTATION&lt;/span&gt;" style="text;html=1;align=center;verticalAlign=middle;resizable=0;points=[];autosize=1;strokeColor=none;fillColor=none;fontSize=12;" parent="1" vertex="1">
          <mxGeometry x="70" y="649" width="160" height="30" as="geometry" />
        </mxCell>
        <mxCell id="AafKOmIe7SDXZY3rJRMZ-1" value="&lt;span style=&quot;text-align: left;&quot;&gt;Division&lt;/span&gt;" style="rounded=0;whiteSpace=wrap;html=1;" vertex="1" parent="1">
          <mxGeometry x="1477" y="80" width="120" height="60" as="geometry" />
        </mxCell>
        <mxCell id="AafKOmIe7SDXZY3rJRMZ-3" value="&lt;span style=&quot;text-align: left;&quot;&gt;Season&lt;/span&gt;" style="rounded=0;whiteSpace=wrap;html=1;" vertex="1" parent="1">
          <mxGeometry x="1597" y="80" width="120" height="60" as="geometry" />
        </mxCell>
        <mxCell id="AafKOmIe7SDXZY3rJRMZ-10" style="edgeStyle=orthogonalEdgeStyle;rounded=0;orthogonalLoop=1;jettySize=auto;html=1;exitX=0.5;exitY=0;exitDx=0;exitDy=0;entryX=0;entryY=0.75;entryDx=0;entryDy=0;fontSize=11;" edge="1" parent="1" source="AafKOmIe7SDXZY3rJRMZ-9" target="ZoIrjNhyJp5aEMFjkI-h-71">
          <mxGeometry relative="1" as="geometry">
            <Array as="points">
              <mxPoint x="324" y="520" />
              <mxPoint x="60" y="520" />
              <mxPoint x="60" y="485" />
            </Array>
          </mxGeometry>
        </mxCell>
        <mxCell id="AafKOmIe7SDXZY3rJRMZ-9" value="&lt;span style=&quot;font-weight: 700; text-align: left;&quot;&gt;&lt;u&gt;OrganisationName&lt;/u&gt;&lt;/span&gt;" style="rounded=0;whiteSpace=wrap;html=1;" vertex="1" parent="1">
          <mxGeometry x="259" y="560" width="130" height="60" as="geometry" />
        </mxCell>
        <mxCell id="AafKOmIe7SDXZY3rJRMZ-12" value="&lt;span style=&quot;font-weight: 700; text-align: left; text-decoration-line: underline;&quot;&gt;OrganisationName&lt;/span&gt;" style="rounded=0;whiteSpace=wrap;html=1;" vertex="1" parent="1">
          <mxGeometry x="81" y="800" width="130" height="60" as="geometry" />
        </mxCell>
        <mxCell id="AafKOmIe7SDXZY3rJRMZ-13" value="&lt;span style=&quot;font-weight: 700; text-align: center;&quot;&gt;GOVERNMENTORGANISATION&lt;/span&gt;" style="text;whiteSpace=wrap;html=1;" vertex="1" parent="1">
          <mxGeometry x="80" y="770" width="90" height="30" as="geometry" />
        </mxCell>
        <mxCell id="AafKOmIe7SDXZY3rJRMZ-15" style="edgeStyle=orthogonalEdgeStyle;rounded=0;orthogonalLoop=1;jettySize=auto;html=1;exitX=0.5;exitY=1;exitDx=0;exitDy=0;entryX=0;entryY=0.5;entryDx=0;entryDy=0;fontSize=11;" edge="1" parent="1" source="AafKOmIe7SDXZY3rJRMZ-14" target="AafKOmIe7SDXZY3rJRMZ-12">
          <mxGeometry relative="1" as="geometry">
            <Array as="points">
              <mxPoint x="340" y="760" />
              <mxPoint x="61" y="760" />
              <mxPoint x="61" y="830" />
            </Array>
          </mxGeometry>
        </mxCell>
        <mxCell id="AafKOmIe7SDXZY3rJRMZ-14" value="&lt;span style=&quot;font-weight: 700; text-align: left;&quot;&gt;&lt;u&gt;OrganisationName&lt;/u&gt;&lt;/span&gt;" style="rounded=0;whiteSpace=wrap;html=1;" vertex="1" parent="1">
          <mxGeometry x="280" y="679" width="120" height="60" as="geometry" />
        </mxCell>
        <mxCell id="AafKOmIe7SDXZY3rJRMZ-16" value="&lt;span style=&quot;font-weight: 700; text-align: left; text-decoration-line: underline;&quot;&gt;MUNIEmployeeID&lt;/span&gt;" style="rounded=0;whiteSpace=wrap;html=1;" vertex="1" parent="1">
          <mxGeometry x="80.5" y="920" width="130" height="60" as="geometry" />
        </mxCell>
        <mxCell id="AafKOmIe7SDXZY3rJRMZ-17" value="&lt;span style=&quot;font-weight: 700; text-align: center;&quot;&gt;MUNICIPALITYEMPLOYEE&lt;/span&gt;" style="text;whiteSpace=wrap;html=1;" vertex="1" parent="1">
          <mxGeometry x="76.5" y="890" width="90" height="30" as="geometry" />
        </mxCell>
        <mxCell id="AafKOmIe7SDXZY3rJRMZ-22" value="&lt;span style=&quot;text-align: left;&quot;&gt;District&lt;/span&gt;" style="rounded=0;whiteSpace=wrap;html=1;" vertex="1" parent="1">
          <mxGeometry x="598" y="920" width="120" height="60" as="geometry" />
        </mxCell>
        <mxCell id="AafKOmIe7SDXZY3rJRMZ-24" value="&lt;span style=&quot;text-align: left;&quot;&gt;MunicipalityName&lt;/span&gt;" style="rounded=0;whiteSpace=wrap;html=1;" vertex="1" parent="1">
          <mxGeometry x="359" y="920" width="130" height="60" as="geometry" />
        </mxCell>
        <mxCell id="AafKOmIe7SDXZY3rJRMZ-25" value="&lt;span style=&quot;text-align: left;&quot;&gt;MUNIEmployeeName&lt;/span&gt;" style="rounded=0;whiteSpace=wrap;html=1;" vertex="1" parent="1">
          <mxGeometry x="209" y="920" width="150" height="60" as="geometry" />
        </mxCell>
        <mxCell id="AafKOmIe7SDXZY3rJRMZ-26" value="&lt;span style=&quot;text-align: left;&quot;&gt;Division&lt;/span&gt;" style="rounded=0;whiteSpace=wrap;html=1;" vertex="1" parent="1">
          <mxGeometry x="489" y="920" width="110" height="60" as="geometry" />
        </mxCell>
        <mxCell id="AafKOmIe7SDXZY3rJRMZ-39" value="&lt;span style=&quot;font-weight: 700; text-align: center;&quot;&gt;POLICYCOMMENT&lt;/span&gt;" style="text;whiteSpace=wrap;html=1;" vertex="1" parent="1">
          <mxGeometry x="79.5" y="1010" width="90" height="30" as="geometry" />
        </mxCell>
        <mxCell id="AafKOmIe7SDXZY3rJRMZ-40" value="&lt;span style=&quot;text-align: left;&quot;&gt;TimePosted&lt;/span&gt;" style="rounded=0;whiteSpace=wrap;html=1;" vertex="1" parent="1">
          <mxGeometry x="345.5" y="1040" width="130" height="60" as="geometry" />
        </mxCell>
        <mxCell id="AafKOmIe7SDXZY3rJRMZ-41" value="&lt;span style=&quot;text-align: left;&quot;&gt;Comment&lt;/span&gt;" style="rounded=0;whiteSpace=wrap;html=1;" vertex="1" parent="1">
          <mxGeometry x="475" y="1040" width="150" height="60" as="geometry" />
        </mxCell>
        <mxCell id="AafKOmIe7SDXZY3rJRMZ-42" value="&lt;span style=&quot;text-align: left;&quot;&gt;DirectedToDistrict&lt;/span&gt;" style="rounded=0;whiteSpace=wrap;html=1;" vertex="1" parent="1">
          <mxGeometry x="625" y="1040" width="130" height="60" as="geometry" />
        </mxCell>
        <mxCell id="AafKOmIe7SDXZY3rJRMZ-48" style="edgeStyle=orthogonalEdgeStyle;rounded=0;orthogonalLoop=1;jettySize=auto;html=1;exitX=0.5;exitY=0;exitDx=0;exitDy=0;entryX=0;entryY=0.5;entryDx=0;entryDy=0;fontSize=11;" edge="1" parent="1" source="AafKOmIe7SDXZY3rJRMZ-47" target="AafKOmIe7SDXZY3rJRMZ-16">
          <mxGeometry relative="1" as="geometry">
            <Array as="points">
              <mxPoint x="275" y="1000" />
              <mxPoint x="56" y="1000" />
              <mxPoint x="56" y="950" />
            </Array>
          </mxGeometry>
        </mxCell>
        <mxCell id="AafKOmIe7SDXZY3rJRMZ-47" value="&lt;span style=&quot;font-weight: 700; text-align: left; text-decoration-line: underline;&quot;&gt;MUNIEmployeeID&lt;/span&gt;" style="rounded=0;whiteSpace=wrap;html=1;" vertex="1" parent="1">
          <mxGeometry x="200" y="1040" width="150" height="60" as="geometry" />
        </mxCell>
        <mxCell id="AafKOmIe7SDXZY3rJRMZ-49" value="&lt;span style=&quot;font-weight: 700; text-align: left; text-decoration-line: underline;&quot;&gt;MINSEmployeeID&lt;/span&gt;" style="rounded=0;whiteSpace=wrap;html=1;" vertex="1" parent="1">
          <mxGeometry x="81.5" y="1040" width="130" height="60" as="geometry" />
        </mxCell>
        <mxCell id="AafKOmIe7SDXZY3rJRMZ-50" value="&lt;span style=&quot;font-weight: 700; text-align: left; text-decoration-line: underline;&quot;&gt;MUNIEmployeeID&lt;/span&gt;" style="rounded=0;whiteSpace=wrap;html=1;" vertex="1" parent="1">
          <mxGeometry x="206" y="1040" width="150" height="60" as="geometry" />
        </mxCell>
        <mxCell id="AafKOmIe7SDXZY3rJRMZ-67" style="edgeStyle=orthogonalEdgeStyle;rounded=0;orthogonalLoop=1;jettySize=auto;html=1;exitX=0;exitY=0.5;exitDx=0;exitDy=0;entryX=0;entryY=0.5;entryDx=0;entryDy=0;fontSize=11;" edge="1" parent="1" source="AafKOmIe7SDXZY3rJRMZ-51" target="AafKOmIe7SDXZY3rJRMZ-64">
          <mxGeometry relative="1" as="geometry" />
        </mxCell>
        <mxCell id="AafKOmIe7SDXZY3rJRMZ-51" value="&lt;span style=&quot;font-weight: 700; text-align: left; text-decoration-line: underline;&quot;&gt;MINSEmployeeID&lt;/span&gt;" style="rounded=0;whiteSpace=wrap;html=1;" vertex="1" parent="1">
          <mxGeometry x="79.5" y="1040" width="130" height="60" as="geometry" />
        </mxCell>
        <mxCell id="AafKOmIe7SDXZY3rJRMZ-52" value="&lt;span style=&quot;font-weight: 700; text-align: left; text-decoration-line: underline;&quot;&gt;MUNIEmployeeID&lt;/span&gt;" style="rounded=0;whiteSpace=wrap;html=1;" vertex="1" parent="1">
          <mxGeometry x="206" y="1040" width="150" height="60" as="geometry" />
        </mxCell>
        <mxCell id="AafKOmIe7SDXZY3rJRMZ-59" value="&lt;span style=&quot;text-align: left;&quot;&gt;Website&lt;/span&gt;" style="rounded=0;whiteSpace=wrap;html=1;" vertex="1" parent="1">
          <mxGeometry x="599.5" y="1170" width="120" height="60" as="geometry" />
        </mxCell>
        <mxCell id="AafKOmIe7SDXZY3rJRMZ-60" value="&lt;span style=&quot;text-align: left;&quot;&gt;MinstryName&lt;/span&gt;" style="rounded=0;whiteSpace=wrap;html=1;" vertex="1" parent="1">
          <mxGeometry x="360.5" y="1170" width="130" height="60" as="geometry" />
        </mxCell>
        <mxCell id="AafKOmIe7SDXZY3rJRMZ-61" value="&lt;span style=&quot;text-align: left;&quot;&gt;MINSEmployeeName&lt;/span&gt;" style="rounded=0;whiteSpace=wrap;html=1;" vertex="1" parent="1">
          <mxGeometry x="210.5" y="1170" width="150" height="60" as="geometry" />
        </mxCell>
        <mxCell id="AafKOmIe7SDXZY3rJRMZ-62" value="&lt;span style=&quot;text-align: left;&quot;&gt;Email&lt;/span&gt;" style="rounded=0;whiteSpace=wrap;html=1;" vertex="1" parent="1">
          <mxGeometry x="490.5" y="1170" width="110" height="60" as="geometry" />
        </mxCell>
        <mxCell id="AafKOmIe7SDXZY3rJRMZ-63" value="&lt;span style=&quot;font-weight: 700; text-align: center;&quot;&gt;MINISTRYOFFICAL&lt;/span&gt;" style="text;whiteSpace=wrap;html=1;" vertex="1" parent="1">
          <mxGeometry x="80" y="1140" width="90" height="30" as="geometry" />
        </mxCell>
        <mxCell id="AafKOmIe7SDXZY3rJRMZ-64" value="&lt;span style=&quot;font-weight: 700; text-align: left; text-decoration-line: underline;&quot;&gt;MINSEmployeeID&lt;/span&gt;" style="rounded=0;whiteSpace=wrap;html=1;" vertex="1" parent="1">
          <mxGeometry x="81.5" y="1170" width="130" height="60" as="geometry" />
        </mxCell>
      </root>
    </mxGraphModel>
  </diagram>
</mxfile>
